<mxfile host="app.diagrams.net" agent="Mozilla/5.0 (Windows NT 10.0; Win64; x64) AppleWebKit/537.36 (KHTML, like Gecko) Chrome/138.0.0.0 Safari/537.36" version="28.0.6">
  <diagram name="ページ1" id="89me4g8qkt-EQHB2Kmhg">
    <mxGraphModel dx="1426" dy="743" grid="1" gridSize="10" guides="1" tooltips="1" connect="1" arrows="1" fold="1" page="1" pageScale="1" pageWidth="1169" pageHeight="827" math="0" shadow="0">
      <root>
        <mxCell id="0" />
        <mxCell id="1" parent="0" />
        <mxCell id="fEGGeuihu7WLxvkU_duI-1" value="AWS Cloud" style="points=[[0,0],[0.25,0],[0.5,0],[0.75,0],[1,0],[1,0.25],[1,0.5],[1,0.75],[1,1],[0.75,1],[0.5,1],[0.25,1],[0,1],[0,0.75],[0,0.5],[0,0.25]];outlineConnect=0;gradientColor=none;html=1;whiteSpace=wrap;fontSize=12;fontStyle=0;shape=mxgraph.aws4.group;grIcon=mxgraph.aws4.group_aws_cloud_alt;strokeColor=#232F3E;fillColor=none;verticalAlign=top;align=left;spacingLeft=30;fontColor=#232F3E;dashed=0;labelBackgroundColor=#ffffff;container=1;pointerEvents=0;collapsible=0;recursiveResize=0;" vertex="1" parent="1">
          <mxGeometry x="200" y="90" width="840" height="670" as="geometry" />
        </mxCell>
        <mxCell id="fEGGeuihu7WLxvkU_duI-2" value="" style="edgeStyle=orthogonalEdgeStyle;rounded=0;orthogonalLoop=1;jettySize=auto;html=1;" edge="1" parent="fEGGeuihu7WLxvkU_duI-1" target="fEGGeuihu7WLxvkU_duI-7">
          <mxGeometry relative="1" as="geometry">
            <mxPoint x="319" y="201" as="sourcePoint" />
          </mxGeometry>
        </mxCell>
        <mxCell id="fEGGeuihu7WLxvkU_duI-3" value="" style="rounded=0;whiteSpace=wrap;html=1;fillColor=none;strokeColor=default;" vertex="1" parent="fEGGeuihu7WLxvkU_duI-1">
          <mxGeometry x="219" y="70" width="200" height="141" as="geometry" />
        </mxCell>
        <mxCell id="fEGGeuihu7WLxvkU_duI-4" value="" style="rounded=0;whiteSpace=wrap;html=1;fillColor=none;strokeColor=default;dashed=1;" vertex="1" parent="fEGGeuihu7WLxvkU_duI-1">
          <mxGeometry x="220" y="430" width="380" height="180" as="geometry" />
        </mxCell>
        <mxCell id="fEGGeuihu7WLxvkU_duI-5" value="Amazon&lt;div&gt;CloudFront&lt;/div&gt;" style="sketch=0;points=[[0,0,0],[0.25,0,0],[0.5,0,0],[0.75,0,0],[1,0,0],[0,1,0],[0.25,1,0],[0.5,1,0],[0.75,1,0],[1,1,0],[0,0.25,0],[0,0.5,0],[0,0.75,0],[1,0.25,0],[1,0.5,0],[1,0.75,0]];outlineConnect=0;fontColor=#232F3E;fillColor=#8C4FFF;strokeColor=#ffffff;dashed=0;verticalLabelPosition=bottom;verticalAlign=top;align=center;html=1;fontSize=12;fontStyle=0;aspect=fixed;shape=mxgraph.aws4.resourceIcon;resIcon=mxgraph.aws4.cloudfront;" vertex="1" parent="fEGGeuihu7WLxvkU_duI-1">
          <mxGeometry x="82" y="101" width="78" height="78" as="geometry" />
        </mxCell>
        <mxCell id="fEGGeuihu7WLxvkU_duI-6" style="edgeStyle=orthogonalEdgeStyle;rounded=0;orthogonalLoop=1;jettySize=auto;html=1;entryX=0;entryY=0.5;entryDx=0;entryDy=0;entryPerimeter=0;" edge="1" parent="fEGGeuihu7WLxvkU_duI-1" source="fEGGeuihu7WLxvkU_duI-7" target="fEGGeuihu7WLxvkU_duI-13">
          <mxGeometry relative="1" as="geometry">
            <mxPoint x="480" y="310" as="targetPoint" />
          </mxGeometry>
        </mxCell>
        <mxCell id="fEGGeuihu7WLxvkU_duI-7" value="&lt;div&gt;Amazon&lt;/div&gt;API Gateway" style="sketch=0;points=[[0,0,0],[0.25,0,0],[0.5,0,0],[0.75,0,0],[1,0,0],[0,1,0],[0.25,1,0],[0.5,1,0],[0.75,1,0],[1,1,0],[0,0.25,0],[0,0.5,0],[0,0.75,0],[1,0.25,0],[1,0.5,0],[1,0.75,0]];outlineConnect=0;fontColor=#232F3E;fillColor=#8C4FFF;strokeColor=#ffffff;dashed=0;verticalLabelPosition=bottom;verticalAlign=top;align=center;html=1;fontSize=12;fontStyle=0;aspect=fixed;shape=mxgraph.aws4.resourceIcon;resIcon=mxgraph.aws4.api_gateway;" vertex="1" parent="fEGGeuihu7WLxvkU_duI-1">
          <mxGeometry x="280" y="271" width="78" height="78" as="geometry" />
        </mxCell>
        <mxCell id="fEGGeuihu7WLxvkU_duI-8" value="React" style="shape=image;verticalLabelPosition=bottom;labelBackgroundColor=default;verticalAlign=top;aspect=fixed;imageAspect=0;editableCssRules=.*;image=data:image/svg+xml,PHN2ZyB4bWxucz0iaHR0cDovL3d3dy53My5vcmcvMjAwMC9zdmciIHZpZXdCb3g9IjIuMzg0MTg1NzkxMDE1NjI1ZS03IC0wLjAwMTM2MjQ0Mjk3MDI3NTg3OSAyMyAyMC40NjQ1MzY2NjY4NzAxMTciIGRhdGEtbmFtZT0iTGF5ZXIgMSIgd2lkdGg9IjIzIiBoZWlnaHQ9IjIwLjQ2NDUzNjY2Njg3MDExNyI+PHRpdGxlPmxvZ288L3RpdGxlPjxwYXRoIGZpbGw9IiM2MWRhZmIiIGQ9Ik0xOC45MSA2LjYzM3EtLjM2Ny0uMTI2LS43NC0uMjM0LjA2Mi0uMjUyLjExNS0uNTA2Yy41Ni0yLjcyLjE5NC00LjkxMi0xLjA1OC01LjYzNC0xLjItLjY5Mi0zLjE2Mi4wMy01LjE0NCAxLjc1NXEtLjI5My4yNTUtLjU3Mi41MjUtLjE4Ny0uMTgtLjM4LS4zNTJDOS4wNTMuMzQ0IDYuOTctLjQzMiA1LjcyLjI5IDQuNTIzLjk4NCA0LjE2OCAzLjA0NSA0LjY3IDUuNjIzcS4wNzcuMzgzLjE3Ljc2MmMtLjI5My4wODQtLjU3OC4xNzMtLjg1LjI2OC0yLjQzNS44NS0zLjk5IDIuMTgtMy45OSAzLjU2IDAgMS40MjUgMS42NyAyLjg1NSA0LjIwNiAzLjcycS4zMDguMTA2LjYyMi4xOTYtLjEwMi40MDctLjE4LjgyYy0uNDgyIDIuNTMzLS4xMDYgNC41NDUgMS4wOSA1LjIzNSAxLjIzNC43MTIgMy4zMDYtLjAyIDUuMzI1LTEuNzg0cS4yNC0uMjA4LjQ4LS40NDIuMzAyLjI5My42Mi41NjhjMS45NTYgMS42ODIgMy44ODYgMi4zNiA1LjA4IDEuNjcgMS4yMzUtLjcxNSAxLjYzNi0yLjg3NiAxLjExNS01LjUwNXEtLjA2LS4zLS4xMzgtLjYxNC4yMTgtLjA2NC40MjgtLjEzM0MyMS4yODUgMTMuMDcgMjMgMTEuNjU3IDIzIDEwLjIxM2MwLTEuMzg2LTEuNjA1LTIuNzI1LTQuMDktMy41OHpNMTIuNzMgMi43NTZjMS42OTgtMS40NzggMy4yODUtMi4wNiA0LjAxLTEuNjQ0Ljc3LjQ0NCAxLjA2OCAyLjIzNS41ODQgNC41ODRxLS4wNDcuMjMtLjEwMy40NTdhMjMuNTM4IDIzLjUzOCAwIDAgMC0zLjA3Ni0uNDg2QTIzLjA4IDIzLjA4IDAgMCAwIDEyLjIgMy4yNHEuMjU4LS4yNDguNTI4LS40ODR6TTYuNzkgMTEuMzlxLjMxMy42MDQuNjUzIDEuMTkuMzQ3LjYuNzIyIDEuMTgzYTIwLjkyMiAyMC45MjIgMCAwIDEtMi4xMi0uMzRjLjIwNC0uNjU3LjQ1NC0xLjM0Ljc0Ni0yLjAzMnptMC0yLjMxYy0uMjg2LS42NzgtLjUzLTEuMzQ1LS43My0xLjk5LjY1NS0uMTQ3IDEuMzU1LS4yNjcgMi4wODQtLjM1OHEtLjM2Ni41Ny0uNzA1IDEuMTYtLjM0LjU4Ni0uNjUgMS4xODh6bS41MjIgMS4xNTZxLjQ1NC0uOTQ1Ljk4LTEuODU0LjUyMi0uOTEgMS4xMTQtMS43NzVjLjY4NC0uMDUyIDEuMzg1LS4wOCAyLjA5NC0uMDguNzEyIDAgMS40MTQuMDI4IDIuMDk4LjA4cS41ODUuODY1IDEuMTA4IDEuNzcuNTI2LjkwNi45OTIgMS44NDUtLjQ2Ljk0OC0uOTg4IDEuODYyLS41MjMuOTA4LTEuMTA0IDEuNzhjLS42ODIuMDUtMS4zODcuMDc0LTIuMTA2LjA3NC0uNzE2IDAtMS40MTItLjAyMi0yLjA4Mi0uMDY2cS0uNTk2LS44Ny0xLjEyNC0xLjc4My0uNTI2LS45MS0uOTgyLTEuODU0em04LjI1IDIuMzRxLjM0Ni0uNjAzLjY2Ni0xLjIyQTIwLjg2NyAyMC44NjcgMCAwIDEgMTcgMTMuMzhhMjAuODUyIDIwLjg1MiAwIDAgMS0yLjE0NS4zNjVxLjM2NC0uNTc4LjcwNi0xLjE3em0uNjU2LTMuNDk1cS0uMzE4LS42MDQtLjY2LTEuMTk2LS4zMzgtLjU4Mi0uNy0xLjE1Yy43MzMuMDkzIDEuNDM2LjIxNiAyLjA5Ny4zNjdhMjAuOTYgMjAuOTYgMCAwIDEtLjczNyAxLjk4ek0xMS41MSAzLjk0NWEyMS4wMTMgMjEuMDEzIDAgMCAxIDEuMzU0IDEuNjM0cS0xLjM1OC0uMDY1LTIuNzE4IDBjLjQ0Ny0uNTkuOTA1LTEuMTM4IDEuMzY1LTEuNjM0ek02LjIxNCAxLjE0Yy43Ny0uNDQ1IDIuNDcuMTkgNC4yNjQgMS43ODMuMTE1LjEwMi4yMy4yMDguMzQ1LjMxOGEyMy41NDUgMjMuNTQ1IDAgMCAwLTEuOTYgMi40MjYgMjQuMDA4IDI0LjAwOCAwIDAgMC0zLjA2OC40NzdxLS4wODgtLjM1Mi0uMTU4LS43MXYuMDAyYy0uNDMzLTIuMjEtLjE0Ni0zLjg3Ni41NzctNC4yOTR6TTUuMDkgMTMuMTgzcS0uMjg1LS4wODItLjU2Ni0uMTc3QTguMzI0IDguMzI0IDAgMCAxIDEuODQgMTEuNThhMi4wMyAyLjAzIDAgMCAxLS44NTctMS4zNjhjMC0uODM3IDEuMjQ4LTEuOTA1IDMuMzMtMi42M3EuMzkzLS4xMzguNzkyLS4yNWEyMy41NjUgMjMuNTY1IDAgMCAwIDEuMTIgMi45MDQgMjMuOTIyIDIzLjkyMiAwIDAgMC0xLjEzNCAyLjk0NnptNS4zMjYgNC40OGE4LjMyMiA4LjMyMiAwIDAgMS0yLjU3NSAxLjYxIDIuMDMgMi4wMyAwIDAgMS0xLjYxMi4wNjJjLS43MjUtLjQyLTEuMDI3LTIuMDM0LS42MTYtNC4ycS4wNzQtLjM4NS4xNjgtLjc2NGEyMy4xMDQgMjMuMTA0IDAgMCAwIDMuMS40NDggMjMuOTEgMjMuOTEgMCAwIDAgMS45NzQgMi40NHEtLjIxNC4yMDctLjQzOC40MDN6bTEuMTIyLTEuMTEyYy0uNDY2LS41MDItLjkzLTEuMDU4LTEuMzg0LTEuNjU2cS42Ni4wMjYgMS4zNDYuMDI2LjcwMyAwIDEuMzg4LS4wM2EyMC44OTQgMjAuODk0IDAgMCAxLTEuMzUgMS42NnptNS45NjcgMS4zNjdhMi4wMyAyLjAzIDAgMCAxLS43NTMgMS40MjhjLS43MjUuNDItMi4yNzUtLjEyNi0zLjk0Ny0xLjU2NHEtLjI4Ny0uMjQ2LS41NzgtLjUyNmEyMy4wOSAyMy4wOSAwIDAgMCAxLjkyOC0yLjQ0OCAyMi45MzYgMjIuOTM2IDAgMCAwIDMuMTE1LS40OHEuMDcuMjg0LjEyNC41NTZhOC4zMiA4LjMyIDAgMCAxIC4xMSAzLjAzNXptLjgzNC00LjkwN2MtLjEyNy4wNDItLjI1Ni4wODItLjM4OC4xMmEyMy4wNiAyMy4wNiAwIDAgMC0xLjE2NC0yLjkxMyAyMy4wNSAyMy4wNSAwIDAgMCAxLjEyLTIuODdjLjIzNC4wNjcuNDYzLjE0LjY4My4yMTUgMi4xMy43MzIgMy40MjggMS44MTYgMy40MjggMi42NSAwIC44OS0xLjQwMyAyLjA0NC0zLjY4IDIuNzk4eiIvPjxwYXRoIGZpbGw9IiM2MWRhZmIiIGQ9Ik0xMS41IDguMTU5YTIuMDU0IDIuMDU0IDAgMSAxLTIuMDU0IDIuMDUyQTIuMDU0IDIuMDU0IDAgMCAxIDExLjUgOC4xNiIvPjwvc3ZnPg==;" vertex="1" parent="fEGGeuihu7WLxvkU_duI-1">
          <mxGeometry x="284.5" y="110" width="69" height="60" as="geometry" />
        </mxCell>
        <mxCell id="fEGGeuihu7WLxvkU_duI-9" value="&lt;span style=&quot;background-color: light-dark(#ffffff, var(--ge-dark-color, #121212));&quot;&gt;Amazon S3&lt;/span&gt;" style="sketch=0;points=[[0,0,0],[0.25,0,0],[0.5,0,0],[0.75,0,0],[1,0,0],[0,1,0],[0.25,1,0],[0.5,1,0],[0.75,1,0],[1,1,0],[0,0.25,0],[0,0.5,0],[0,0.75,0],[1,0.25,0],[1,0.5,0],[1,0.75,0]];outlineConnect=0;fontColor=#232F3E;fillColor=#7AA116;strokeColor=#ffffff;dashed=0;verticalLabelPosition=bottom;verticalAlign=top;align=center;html=1;fontSize=12;fontStyle=0;aspect=fixed;shape=mxgraph.aws4.resourceIcon;resIcon=mxgraph.aws4.s3;" vertex="1" parent="fEGGeuihu7WLxvkU_duI-1">
          <mxGeometry x="238" y="50" width="40" height="40" as="geometry" />
        </mxCell>
        <mxCell id="fEGGeuihu7WLxvkU_duI-10" style="edgeStyle=orthogonalEdgeStyle;rounded=0;orthogonalLoop=1;jettySize=auto;html=1;entryX=1;entryY=0.5;entryDx=0;entryDy=0;entryPerimeter=0;" edge="1" parent="fEGGeuihu7WLxvkU_duI-1" target="fEGGeuihu7WLxvkU_duI-5">
          <mxGeometry relative="1" as="geometry">
            <mxPoint x="270" y="140" as="sourcePoint" />
          </mxGeometry>
        </mxCell>
        <mxCell id="fEGGeuihu7WLxvkU_duI-11" style="edgeStyle=orthogonalEdgeStyle;rounded=0;orthogonalLoop=1;jettySize=auto;html=1;exitX=1;exitY=0.5;exitDx=0;exitDy=0;exitPerimeter=0;" edge="1" parent="fEGGeuihu7WLxvkU_duI-1" source="fEGGeuihu7WLxvkU_duI-13" target="fEGGeuihu7WLxvkU_duI-12">
          <mxGeometry relative="1" as="geometry">
            <mxPoint x="558" y="310" as="sourcePoint" />
          </mxGeometry>
        </mxCell>
        <mxCell id="fEGGeuihu7WLxvkU_duI-12" value="&lt;span style=&quot;background-color: light-dark(#ffffff, var(--ge-dark-color, #121212));&quot;&gt;Amazon S3&lt;/span&gt;" style="sketch=0;points=[[0,0,0],[0.25,0,0],[0.5,0,0],[0.75,0,0],[1,0,0],[0,1,0],[0.25,1,0],[0.5,1,0],[0.75,1,0],[1,1,0],[0,0.25,0],[0,0.5,0],[0,0.75,0],[1,0.25,0],[1,0.5,0],[1,0.75,0]];outlineConnect=0;fontColor=#232F3E;fillColor=#7AA116;strokeColor=#ffffff;dashed=0;verticalLabelPosition=bottom;verticalAlign=top;align=center;html=1;fontSize=12;fontStyle=0;aspect=fixed;shape=mxgraph.aws4.resourceIcon;resIcon=mxgraph.aws4.s3;" vertex="1" parent="fEGGeuihu7WLxvkU_duI-1">
          <mxGeometry x="680" y="271" width="78" height="78" as="geometry" />
        </mxCell>
        <mxCell id="fEGGeuihu7WLxvkU_duI-13" value="AWS Lambda" style="sketch=0;points=[[0,0,0],[0.25,0,0],[0.5,0,0],[0.75,0,0],[1,0,0],[0,1,0],[0.25,1,0],[0.5,1,0],[0.75,1,0],[1,1,0],[0,0.25,0],[0,0.5,0],[0,0.75,0],[1,0.25,0],[1,0.5,0],[1,0.75,0]];outlineConnect=0;fontColor=#232F3E;fillColor=#ED7100;strokeColor=#ffffff;dashed=0;verticalLabelPosition=bottom;verticalAlign=top;align=center;html=1;fontSize=12;fontStyle=0;aspect=fixed;shape=mxgraph.aws4.resourceIcon;resIcon=mxgraph.aws4.lambda;" vertex="1" parent="fEGGeuihu7WLxvkU_duI-1">
          <mxGeometry x="480" y="271" width="78" height="78" as="geometry" />
        </mxCell>
        <mxCell id="fEGGeuihu7WLxvkU_duI-14" style="edgeStyle=orthogonalEdgeStyle;rounded=0;orthogonalLoop=1;jettySize=auto;html=1;exitX=1;exitY=0.5;exitDx=0;exitDy=0;" edge="1" parent="fEGGeuihu7WLxvkU_duI-1" source="fEGGeuihu7WLxvkU_duI-4">
          <mxGeometry relative="1" as="geometry">
            <mxPoint x="720" y="371" as="targetPoint" />
          </mxGeometry>
        </mxCell>
        <mxCell id="fEGGeuihu7WLxvkU_duI-15" value="&lt;span style=&quot;background-color: light-dark(#ffffff, var(--ge-dark-color, #121212));&quot;&gt;AWS Lambda&lt;/span&gt;" style="sketch=0;points=[[0,0,0],[0.25,0,0],[0.5,0,0],[0.75,0,0],[1,0,0],[0,1,0],[0.25,1,0],[0.5,1,0],[0.75,1,0],[1,1,0],[0,0.25,0],[0,0.5,0],[0,0.75,0],[1,0.25,0],[1,0.5,0],[1,0.75,0]];outlineConnect=0;fontColor=#232F3E;fillColor=#ED7100;strokeColor=#ffffff;dashed=0;verticalLabelPosition=bottom;verticalAlign=top;align=center;html=1;fontSize=12;fontStyle=0;aspect=fixed;shape=mxgraph.aws4.resourceIcon;resIcon=mxgraph.aws4.lambda;" vertex="1" parent="fEGGeuihu7WLxvkU_duI-1">
          <mxGeometry x="480" y="471" width="78" height="78" as="geometry" />
        </mxCell>
        <mxCell id="fEGGeuihu7WLxvkU_duI-16" value="Weather Data" style="text;html=1;align=center;verticalAlign=middle;whiteSpace=wrap;rounded=0;" vertex="1" parent="fEGGeuihu7WLxvkU_duI-1">
          <mxGeometry x="20" y="490" width="130" height="30" as="geometry" />
        </mxCell>
        <mxCell id="fEGGeuihu7WLxvkU_duI-17" value="Amazon EventBridge" style="sketch=0;points=[[0,0,0],[0.25,0,0],[0.5,0,0],[0.75,0,0],[1,0,0],[0,1,0],[0.25,1,0],[0.5,1,0],[0.75,1,0],[1,1,0],[0,0.25,0],[0,0.5,0],[0,0.75,0],[1,0.25,0],[1,0.5,0],[1,0.75,0]];outlineConnect=0;fontColor=#232F3E;fillColor=#E7157B;strokeColor=#ffffff;dashed=0;verticalLabelPosition=bottom;verticalAlign=top;align=center;html=1;fontSize=12;fontStyle=0;aspect=fixed;shape=mxgraph.aws4.resourceIcon;resIcon=mxgraph.aws4.eventbridge;" vertex="1" parent="fEGGeuihu7WLxvkU_duI-1">
          <mxGeometry x="280" y="471" width="78" height="78" as="geometry" />
        </mxCell>
        <mxCell id="fEGGeuihu7WLxvkU_duI-18" value="Scheduled Tasks" style="text;html=1;align=center;verticalAlign=middle;whiteSpace=wrap;rounded=0;" vertex="1" parent="fEGGeuihu7WLxvkU_duI-1">
          <mxGeometry x="210" y="430" width="130" height="30" as="geometry" />
        </mxCell>
        <mxCell id="fEGGeuihu7WLxvkU_duI-19" value="User" style="sketch=0;outlineConnect=0;fontColor=#232F3E;gradientColor=none;fillColor=#232F3D;strokeColor=none;dashed=0;verticalLabelPosition=bottom;verticalAlign=top;align=center;html=1;fontSize=12;fontStyle=0;aspect=fixed;pointerEvents=1;shape=mxgraph.aws4.user;" vertex="1" parent="1">
          <mxGeometry x="80" y="192" width="78" height="78" as="geometry" />
        </mxCell>
        <mxCell id="fEGGeuihu7WLxvkU_duI-20" style="edgeStyle=orthogonalEdgeStyle;rounded=0;orthogonalLoop=1;jettySize=auto;html=1;entryX=0.994;entryY=0.487;entryDx=0;entryDy=0;entryPerimeter=0;" edge="1" parent="1" source="fEGGeuihu7WLxvkU_duI-5" target="fEGGeuihu7WLxvkU_duI-19">
          <mxGeometry relative="1" as="geometry" />
        </mxCell>
        <mxCell id="fEGGeuihu7WLxvkU_duI-21" style="edgeStyle=orthogonalEdgeStyle;rounded=0;orthogonalLoop=1;jettySize=auto;html=1;" edge="1" parent="1" target="fEGGeuihu7WLxvkU_duI-4">
          <mxGeometry relative="1" as="geometry">
            <mxPoint x="160" y="610" as="sourcePoint" />
          </mxGeometry>
        </mxCell>
        <mxCell id="fEGGeuihu7WLxvkU_duI-22" value="OpenWeather" style="sketch=0;outlineConnect=0;fontColor=#232F3E;gradientColor=none;fillColor=#232F3D;strokeColor=none;dashed=0;verticalLabelPosition=bottom;verticalAlign=top;align=center;html=1;fontSize=12;fontStyle=0;aspect=fixed;pointerEvents=1;shape=mxgraph.aws4.traditional_server;" vertex="1" parent="1">
          <mxGeometry x="96.5" y="571" width="45" height="78" as="geometry" />
        </mxCell>
      </root>
    </mxGraphModel>
  </diagram>
</mxfile>
